<svg xmlns="http://www.w3.org/2000/svg" viewBox="0 0 400 250">
  <defs>
    <linearGradient id="ba2_sky" x1="0" y1="0" x2="0" y2="1"><stop offset="0%" stop-color="#1A5AA8"/><stop offset="100%" stop-color="#4A8AE0"/></linearGradient>
  </defs>
  <rect width="400" height="250" fill="url(#ba2_sky)"/>
  <!-- Colorful painted houses: adjacent rectangles -->
  <!-- House 1: red -->
  <rect x="20" y="90" width="65" height="120" fill="#CC2010"/>
  <!-- Corrugated metal roof hint: horizontal stripes -->
  <rect x="20" y="90" width="65" height="4" fill="#AA1A0A"/>
  <rect x="20" y="96" width="65" height="4" fill="#CC2010"/>
  <rect x="20" y="102" width="65" height="4" fill="#AA1A0A"/>
  <!-- House 2: yellow -->
  <rect x="85" y="80" width="65" height="130" fill="#E8C010"/>
  <rect x="85" y="80" width="65" height="4" fill="#C8A00A"/>
  <rect x="85" y="86" width="65" height="4" fill="#E8C010"/>
  <rect x="85" y="92" width="65" height="4" fill="#C8A00A"/>
  <!-- House 3: blue -->
  <rect x="150" y="95" width="65" height="115" fill="#1060B8"/>
  <rect x="150" y="95" width="65" height="4" fill="#0A5098"/>
  <rect x="150" y="101" width="65" height="4" fill="#1060B8"/>
  <rect x="150" y="107" width="65" height="4" fill="#0A5098"/>
  <!-- House 4: green -->
  <rect x="215" y="85" width="65" height="125" fill="#1A8820"/>
  <rect x="215" y="85" width="65" height="4" fill="#126818"/>
  <rect x="215" y="91" width="65" height="4" fill="#1A8820"/>
  <rect x="215" y="97" width="65" height="4" fill="#126818"/>
  <!-- House 5: orange -->
  <rect x="280" y="100" width="100" height="110" fill="#D05010"/>
  <rect x="280" y="100" width="100" height="4" fill="#B04010"/>
  <rect x="280" y="106" width="100" height="4" fill="#D05010"/>
  <rect x="280" y="112" width="100" height="4" fill="#B04010"/>
  <!-- Windows on houses -->
  <rect x="38" y="115" width="15" height="18" fill="#88AACC" opacity="0.5"/>
  <rect x="100" y="105" width="15" height="18" fill="#88AACC" opacity="0.5"/>
  <rect x="165" y="120" width="15" height="18" fill="#88AACC" opacity="0.5"/>
  <rect x="230" y="110" width="15" height="18" fill="#88AACC" opacity="0.5"/>
  <rect x="305" y="125" width="15" height="18" fill="#88AACC" opacity="0.5"/>
  <!-- Cobblestone street at bottom: gray grid -->
  <rect x="0" y="210" width="400" height="40" fill="#808080"/>
  <!-- Grid lines -->
  <line x1="0" y1="218" x2="400" y2="218" stroke="#666" stroke-width="1" opacity="0.5"/>
  <line x1="0" y1="226" x2="400" y2="226" stroke="#666" stroke-width="1" opacity="0.5"/>
  <line x1="0" y1="234" x2="400" y2="234" stroke="#666" stroke-width="1" opacity="0.5"/>
  <line x1="20" y1="210" x2="20" y2="250" stroke="#666" stroke-width="1" opacity="0.4"/>
  <line x1="50" y1="210" x2="50" y2="250" stroke="#666" stroke-width="1" opacity="0.4"/>
  <line x1="80" y1="210" x2="80" y2="250" stroke="#666" stroke-width="1" opacity="0.4"/>
  <line x1="110" y1="210" x2="110" y2="250" stroke="#666" stroke-width="1" opacity="0.4"/>
  <line x1="140" y1="210" x2="140" y2="250" stroke="#666" stroke-width="1" opacity="0.4"/>
  <line x1="170" y1="210" x2="170" y2="250" stroke="#666" stroke-width="1" opacity="0.4"/>
  <line x1="200" y1="210" x2="200" y2="250" stroke="#666" stroke-width="1" opacity="0.4"/>
  <line x1="230" y1="210" x2="230" y2="250" stroke="#666" stroke-width="1" opacity="0.4"/>
  <line x1="260" y1="210" x2="260" y2="250" stroke="#666" stroke-width="1" opacity="0.4"/>
  <line x1="290" y1="210" x2="290" y2="250" stroke="#666" stroke-width="1" opacity="0.4"/>
  <line x1="320" y1="210" x2="320" y2="250" stroke="#666" stroke-width="1" opacity="0.4"/>
  <line x1="350" y1="210" x2="350" y2="250" stroke="#666" stroke-width="1" opacity="0.4"/>
  <line x1="380" y1="210" x2="380" y2="250" stroke="#666" stroke-width="1" opacity="0.4"/>
</svg>
