<svg xmlns="http://www.w3.org/2000/svg" viewBox="0 0 400 250">
  <defs>
    <linearGradient id="city2_sky" x1="0" y1="0" x2="0" y2="1"><stop offset="0%" stop-color="#18042A"/><stop offset="70%" stop-color="#E06010"/><stop offset="100%" stop-color="#F08030"/></linearGradient>
    <linearGradient id="city2_water" x1="0" y1="0" x2="0" y2="1"><stop offset="0%" stop-color="#0A0415"/><stop offset="100%" stop-color="#06020E"/></linearGradient>
  </defs>
  <rect width="400" height="250" fill="url(#city2_sky)"/>
  <!-- Building silhouettes -->
  <rect x="0" y="100" width="45" height="130" fill="#0A0210"/>
  <rect x="40" y="120" width="35" height="110" fill="#080110"/>
  <rect x="70" y="85" width="28" height="145" fill="#0A0210"/>
  <rect x="93" y="108" width="32" height="122" fill="#080110"/>
  <rect x="120" y="70" width="25" height="160" fill="#0A0210"/>
  <rect x="140" y="95" width="30" height="135" fill="#080110"/>
  <rect x="165" y="55" width="35" height="175" fill="#0C0215"/>
  <rect x="195" y="80" width="28" height="150" fill="#080110"/>
  <rect x="218" y="60" width="32" height="170" fill="#0A0210"/>
  <rect x="245" y="90" width="28" height="140" fill="#080110"/>
  <rect x="268" y="72" width="38" height="158" fill="#0A0210"/>
  <rect x="300" y="55" width="40" height="175" fill="#0C0215"/>
  <rect x="335" y="88" width="30" height="142" fill="#080110"/>
  <rect x="360" y="70" width="40" height="160" fill="#0A0210"/>
  <!-- Water strip at bottom -->
  <rect x="0" y="225" width="400" height="25" fill="url(#city2_water)"/>
  <!-- Building reflections in water (inverted dark) -->
  <rect x="0" y="226" width="45" height="24" fill="#0A0210" opacity="0.5"/>
  <rect x="70" y="226" width="28" height="24" fill="#0A0210" opacity="0.45"/>
  <rect x="165" y="226" width="35" height="24" fill="#0C0215" opacity="0.5"/>
  <rect x="300" y="226" width="40" height="24" fill="#0C0215" opacity="0.45"/>
  <!-- Horizon glow line -->
  <rect x="0" y="222" width="400" height="4" fill="#E06010" opacity="0.25"/>
</svg>
