<svg xmlns="http://www.w3.org/2000/svg" viewBox="0 0 400 250">
  <defs>
    <linearGradient id="sky" x1="0" y1="0" x2="0" y2="1"><stop offset="0%" stop-color="#040D1A"/><stop offset="100%" stop-color="#0A2545"/></linearGradient>
    <linearGradient id="w1" x1="0" y1="0" x2="0" y2="1"><stop offset="0%" stop-color="#0A4A8A"/><stop offset="100%" stop-color="#062A5A"/></linearGradient>
    <linearGradient id="w2" x1="0" y1="0" x2="0" y2="1"><stop offset="0%" stop-color="#0B5AA0"/><stop offset="100%" stop-color="#083570"/></linearGradient>
  </defs>
  <rect width="400" height="250" fill="url(#sky)"/>
  <circle cx="30" cy="25" r="1.5" fill="white" opacity="0.7"/>
  <circle cx="100" cy="15" r="1" fill="white" opacity="0.8"/>
  <circle cx="180" cy="30" r="1.5" fill="white" opacity="0.6"/>
  <circle cx="250" cy="12" r="1" fill="white" opacity="0.9"/>
  <circle cx="60" cy="40" r="22" fill="#F0E68C" opacity="0.9"/>
  <circle cx="68" cy="36" r="18" fill="#0A2545" opacity="0.85"/>
  <path d="M0 130 C50 115 100 140 150 125 C200 110 250 135 300 120 C350 105 380 125 400 118 L400 250 L0 250Z" fill="#072040"/>
  <path d="M0 155 C60 138 120 162 180 148 C240 134 300 158 360 144 C380 140 395 148 400 145 L400 250 L0 250Z" fill="url(#w1)"/>
  <path d="M0 178 C70 162 140 185 210 170 C280 155 340 178 400 165 L400 250 L0 250Z" fill="url(#w2)"/>
  <path d="M0 205 C80 190 160 210 240 198 C300 188 360 205 400 198 L400 250 L0 250Z" fill="#0E6AB0"/>
  <rect x="345" y="95" width="18" height="55" fill="#C0C8D8"/>
  <polygon points="340,95 363,95 351,75" fill="#E8364A"/>
  <rect x="343" y="147" width="22" height="5" fill="#A0A8B8"/>
  <circle cx="354" cy="90" r="6" fill="#FFE566" opacity="0.9"/>
  <rect x="336" y="150" width="36" height="20" fill="#B0B8C8" rx="2"/>
  <path d="M354 90 L310 140 L340 140Z" fill="#FFE566" opacity="0.12"/>
</svg>
