<svg xmlns="http://www.w3.org/2000/svg" viewBox="0 0 400 250">
  <defs>
    <linearGradient id="paris2_sky" x1="0" y1="0" x2="0" y2="1"><stop offset="0%" stop-color="#020818"/><stop offset="100%" stop-color="#060E28"/></linearGradient>
  </defs>
  <rect width="400" height="250" fill="url(#paris2_sky)"/>
  <!-- Stars -->
  <circle cx="30" cy="15" r="1" fill="white" opacity="0.7"/>
  <circle cx="80" cy="8" r="1.5" fill="white" opacity="0.6"/>
  <circle cx="140" cy="22" r="1" fill="white" opacity="0.8"/>
  <circle cx="320" cy="12" r="1.5" fill="white" opacity="0.7"/>
  <circle cx="370" cy="25" r="1" fill="white" opacity="0.6"/>
  <circle cx="50" cy="40" r="1" fill="white" opacity="0.5"/>
  <circle cx="295" cy="35" r="1" fill="white" opacity="0.5"/>
  <!-- Moon -->
  <circle cx="340" cy="35" r="16" fill="#C8D4EE" opacity="0.85"/>
  <!-- Eiffel Tower structure in dark blue -->
  <polygon points="195,40 205,40 220,155 180,155" fill="#1A2A4A"/>
  <polygon points="198,40 202,40 215,100 185,100" fill="#202E50"/>
  <polygon points="192,155 208,155 213,175 187,175" fill="#1A2A4A"/>
  <polygon points="187,175 213,175 222,195 178,195" fill="#1A2A4A"/>
  <rect x="185" y="100" width="30" height="4" fill="#1A2A4A"/>
  <rect x="188" y="135" width="24" height="4" fill="#1A2A4A"/>
  <rect x="183" y="162" width="34" height="4" fill="#1A2A4A"/>
  <rect x="178" y="185" width="44" height="4" fill="#1A2A4A"/>
  <line x1="200" y1="40" x2="200" y2="18" stroke="#1A2A4A" stroke-width="2.5"/>
  <!-- Sparkle lights on tower: yellow dots -->
  <circle cx="200" cy="40" r="1.5" fill="#FFE566" opacity="0.9"/>
  <circle cx="192" cy="60" r="1.5" fill="#FFE566" opacity="0.85"/>
  <circle cx="208" cy="60" r="1.5" fill="#FFE566" opacity="0.85"/>
  <circle cx="186" cy="82" r="1.5" fill="#FFE566" opacity="0.8"/>
  <circle cx="200" cy="80" r="1.5" fill="#FFE566" opacity="0.9"/>
  <circle cx="214" cy="82" r="1.5" fill="#FFE566" opacity="0.8"/>
  <circle cx="185" cy="100" r="1.5" fill="#FFE566" opacity="0.75"/>
  <circle cx="200" cy="100" r="1.5" fill="#FFE566" opacity="0.85"/>
  <circle cx="215" cy="100" r="1.5" fill="#FFE566" opacity="0.75"/>
  <circle cx="183" cy="120" r="1" fill="#FFE566" opacity="0.7"/>
  <circle cx="200" cy="118" r="1" fill="#FFE566" opacity="0.75"/>
  <circle cx="217" cy="120" r="1" fill="#FFE566" opacity="0.7"/>
  <circle cx="183" cy="138" r="1" fill="#FFE566" opacity="0.65"/>
  <circle cx="200" cy="136" r="1" fill="#FFE566" opacity="0.70"/>
  <circle cx="217" cy="138" r="1" fill="#FFE566" opacity="0.65"/>
  <!-- Ground -->
  <rect x="0" y="225" width="400" height="25" fill="#08080E"/>
</svg>
