<svg xmlns="http://www.w3.org/2000/svg" viewBox="0 0 400 250">
  <defs>
    <linearGradient id="sky" x1="0" y1="0" x2="0" y2="1"><stop offset="0%" stop-color="#1A0205"/><stop offset="60%" stop-color="#6A0A15"/><stop offset="100%" stop-color="#A01520"/></linearGradient>
    <linearGradient id="fuji" x1="0" y1="0" x2="0" y2="1"><stop offset="0%" stop-color="#2A1428"/><stop offset="100%" stop-color="#3A1A30"/></linearGradient>
  </defs>
  <rect width="400" height="250" fill="url(#sky)"/>
  <circle cx="200" cy="145" r="90" fill="#CC1020" opacity="0.18"/>
  <circle cx="200" cy="145" r="65" fill="#CC1020" opacity="0.15"/>
  <polygon points="90,185 200,80 310,185" fill="url(#fuji)"/>
  <polygon points="175,110 200,80 225,110 215,108 200,92 185,108" fill="white" opacity="0.85"/>
  <rect x="52" y="165" width="36" height="50" fill="#1A0808"/>
  <polygon points="40,165 70,148 100,165" fill="#2A0A0A"/>
  <rect x="55" y="148" width="30" height="6" fill="#CC1020" opacity="0.7"/>
  <polygon points="47,148 70,134 93,148" fill="#2A0A0A"/>
  <rect x="58" y="134" width="24" height="5" fill="#CC1020" opacity="0.7"/>
  <polygon points="53,134 70,122 87,134" fill="#2A0A0A"/>
  <rect x="61" y="122" width="18" height="4" fill="#CC1020" opacity="0.7"/>
  <line x1="70" y1="122" x2="70" y2="108" stroke="#1A0808" stroke-width="2.5"/>
  <line x1="320" y1="215" x2="325" y2="145" stroke="#3A1A1A" stroke-width="4"/>
  <line x1="325" y1="160" x2="345" y2="140" stroke="#3A1A1A" stroke-width="2.5"/>
  <line x1="325" y1="150" x2="305" y2="135" stroke="#3A1A1A" stroke-width="2"/>
  <circle cx="325" cy="138" r="22" fill="#D4548A" opacity="0.85"/>
  <circle cx="345" cy="132" r="16" fill="#C8407A" opacity="0.75"/>
  <circle cx="305" cy="130" r="14" fill="#D4548A" opacity="0.80"/>
  <circle cx="365" cy="120" r="4" fill="#D4548A" opacity="0.6"/>
  <circle cx="350" cy="100" r="3" fill="#C8407A" opacity="0.5"/>
  <circle cx="380" cy="135" r="3.5" fill="#D4548A" opacity="0.55"/>
  <rect x="0" y="210" width="400" height="40" fill="#100408"/>
</svg>
